<svg width="20" height="20" viewBox="0 0 20 20" fill="none" xmlns="http://www.w3.org/2000/svg">
<g clip-path="url(#clip0_2689_47)">
<path d="M7.2726 1.29492L9.5451 4.90659V18.7049H10.4543V4.90742L12.7276 1.29492H7.2726ZM2.2726 5.41826V8.16659H8.18177C8.18427 7.47492 8.18177 6.77326 8.17677 6.08492C8.17677 5.76576 7.8801 5.47492 7.57843 5.41826H2.2726ZM12.5251 5.41909C12.1901 5.43909 11.8293 5.76076 11.8301 6.11659L11.8184 16.6324C11.8184 17.1074 12.4576 17.5199 12.8243 17.2383L19.7243 11.9624C20.0918 11.6833 20.0909 11.0291 19.7243 10.7499L12.8368 5.51076C12.7475 5.44338 12.6367 5.4108 12.5251 5.41909ZM-0.000732422 9.99992V12.7491H8.18093V9.99992H-0.000732422ZM3.6351 14.5808V17.3308H8.18093V14.5808H3.6351Z" fill="black"/>
</g>
<defs>
<clipPath id="clip0_2689_47">
<rect width="20" height="20" fill="white"/>
</clipPath>
</defs>
</svg>
